<svg xmlns="http://www.w3.org/2000/svg" width="39.999" height="40" viewBox="0 0 39.999 40">
  <g id="Group_33839" data-name="Group 33839" transform="translate(4 0.001)">
    <g id="Group_33838" data-name="Group 33838" transform="translate(-4 -0.001)">
      <g id="Group_33837" data-name="Group 33837" transform="translate(4.828 8.966)">
        <path id="Path_810" data-name="Path 810" d="M14.586,13h2.759v8.276H14.586ZM7,13H9.759v8.276H7Zm15.172,0h2.759v8.276H22.172Z" transform="translate(-7 -13)" fill="#ced2dc"/>
      </g>
      <path id="Path_811" data-name="Path 811" d="M14.276,23h2.759a.69.69,0,0,1,.69.69v2.759H13.586V23.69A.69.69,0,0,1,14.276,23Zm7.586,0H24.62a.69.69,0,0,1,.69.69v2.759H21.172V23.69A.69.69,0,0,1,21.862,23ZM6.69,23H9.448a.69.69,0,0,1,.69.69v2.759H6V23.69A.69.69,0,0,1,6.69,23Z" transform="translate(-1.862 -7.138)" fill="#295474"/>
      <path id="Path_812" data-name="Path 812" d="M32.586,36h2.759v8.276H32.586ZM25,36h2.759v8.276H25Zm15.172,0h2.759v8.276H40.172Z" transform="translate(-7.759 -11.172)" fill="#ced2dc"/>
      <path id="Path_813" data-name="Path 813" d="M32.276,46h2.759a.69.69,0,0,1,.69.69v2.759H31.586V46.69A.69.69,0,0,1,32.276,46Zm7.586,0H42.62a.69.69,0,0,1,.69.69v2.759H39.172V46.69A.69.69,0,0,1,39.862,46ZM24.69,46h2.759a.69.69,0,0,1,.69.69v2.759H24V46.69A.69.69,0,0,1,24.69,46Z" transform="translate(-7.449 -14.276)" fill="#f7ad00"/>
      <path id="Path_814" data-name="Path 814" d="M23,30.448H3V28.379A1.383,1.383,0,0,1,4.379,27H22.938Z" transform="translate(-0.931 -8.379)" fill="#346d94"/>
      <path id="Path_815" data-name="Path 815" d="M17.931,33.759H.69a.69.69,0,0,1-.69-.69v-.69A1.383,1.383,0,0,1,1.379,31H19.31Z" transform="translate(0 -9.62)" fill="#295474"/>
      <path id="Path_816" data-name="Path 816" d="M27.072,10.344H.515a.518.518,0,0,1-.3-.94L13.228.182a.966.966,0,0,1,1.13,0L27.367,9.4a.518.518,0,0,1-.3.94Z" transform="translate(0 0.001)" fill="#346d94"/>
      <path id="Path_817" data-name="Path 817" d="M22.379,50H43.069a1.379,1.379,0,0,1,1.379,1.379v2.069H21V51.379A1.379,1.379,0,0,1,22.379,50Z" transform="translate(-6.517 -15.517)" fill="#ffc306"/>
      <path id="Path_818" data-name="Path 818" d="M45.071,33.344H18.514a.518.518,0,0,1-.3-.94l13.009-9.223a.966.966,0,0,1,1.13,0L45.367,32.4a.518.518,0,0,1-.3.94ZM19.379,44.379H44.206a1.379,1.379,0,0,1,1.379,1.379v.69a.69.69,0,0,1-.69.69H18.69a.69.69,0,0,1-.69-.69v-.69A1.379,1.379,0,0,1,19.379,44.379Z" transform="translate(-5.586 -7.137)" fill="#f7ad00"/>
      <path id="Path_819" data-name="Path 819" d="M11.6,36.46a.683.683,0,0,0-.15-.225L9.383,34.166a.69.69,0,1,0-.975.975l.892.892H6.138a2.759,2.759,0,0,1-2.759-2.759V29.138a.69.69,0,1,0-1.379,0v4.138a4.142,4.142,0,0,0,4.138,4.138H9.3l-.892.892a.69.69,0,1,0,.975.975l2.069-2.069A.69.69,0,0,0,11.6,36.46ZM37.659,11.409a.69.69,0,0,0-.975,0l-.892.892V9.138A4.142,4.142,0,0,0,31.655,5H27.517a.69.69,0,0,0,0,1.379h4.138a2.759,2.759,0,0,1,2.759,2.759V12.3l-.892-.892a.69.69,0,1,0-.975.975l2.069,2.069a.69.69,0,0,0,.977,0l2.069-2.069A.69.69,0,0,0,37.659,11.409Z" transform="translate(-0.621 -1.551)" fill="#49505b"/>
    </g>
  </g>
</svg>
