<svg xmlns="http://www.w3.org/2000/svg" width="36.417" height="24.062" viewBox="0 0 36.417 24.062">
  <g id="Group_33836" data-name="Group 33836" transform="translate(-3.571 -18.976)">
    <path id="Path_796" data-name="Path 796" d="M37.831,52.422H7.447a3.016,3.016,0,0,1-3.016-3.016V32.582a3.016,3.016,0,0,1,3.016-3.016H37.831a3.016,3.016,0,0,1,3.016,3.016V49.407a3.016,3.016,0,0,1-3.016,3.016Z" transform="translate(-0.86 -9.384)" fill="#5e69e0"/>
    <path id="Path_797" data-name="Path 797" d="M7.447,50.556H37.831a3.016,3.016,0,0,0,3.017-3.017V30.715A3.016,3.016,0,0,0,37.831,27.7H7.447a3.016,3.016,0,0,0-3.016,3.016V47.54a3.017,3.017,0,0,0,3.017,3.017Z" transform="translate(-0.86 -8.723)" fill="#5e69e0"/>
    <path id="Path_798" data-name="Path 798" d="M7.779,27.7H38.163a3.016,3.016,0,0,1,3.016,3.016V47.54S40.832,31.231,5.37,28.905A3.008,3.008,0,0,1,7.778,27.7Z" transform="translate(-1.193 -8.723)" fill="#5e69e1"/>
    <path id="Path_799" data-name="Path 799" d="M54.2,54.28v.468h-.006a1.157,1.157,0,0,1-1.153,1.165h-3.06a1.158,1.158,0,0,1-1.152-1.165h-.006V54.28h.075a1.288,1.288,0,0,1,1.189-.766h2.849a1.288,1.288,0,0,1,1.189.766Z" transform="translate(-16.572 -17.861)" fill="#e3e7f0"/>
    <path id="Path_800" data-name="Path 800" d="M53.034,55.232H50.076a1.228,1.228,0,0,1-1.243-.995A1.166,1.166,0,0,1,49.986,52.9h2.947a1.23,1.23,0,0,1,1.259,1.089,1.161,1.161,0,0,1-1.158,1.24Z" transform="translate(-16.573 -17.644)" fill="#fff"/>
    <path id="Path_801" data-name="Path 801" d="M40.619,54.28v.468h-.006a1.156,1.156,0,0,1-1.152,1.165H36.4a1.158,1.158,0,0,1-1.153-1.165h-.006V54.28h.075a1.289,1.289,0,0,1,1.19-.766h2.848a1.289,1.289,0,0,1,1.19.766Z" transform="translate(-11.766 -17.861)" fill="#e3e7f0"/>
    <path id="Path_802" data-name="Path 802" d="M39.458,55.232H36.5a1.227,1.227,0,0,1-1.242-.995A1.166,1.166,0,0,1,36.41,52.9h2.947a1.23,1.23,0,0,1,1.26,1.089,1.161,1.161,0,0,1-1.158,1.24Z" transform="translate(-11.767 -17.644)" fill="#fff"/>
    <path id="Path_803" data-name="Path 803" d="M27.042,54.28v.468h-.006a1.157,1.157,0,0,1-1.153,1.165h-3.06a1.158,1.158,0,0,1-1.153-1.165h-.006V54.28h.076a1.288,1.288,0,0,1,1.189-.766h2.849a1.288,1.288,0,0,1,1.189.766Z" transform="translate(-6.96 -17.861)" fill="#e3e7f0"/>
    <path id="Path_804" data-name="Path 804" d="M25.881,55.232H22.923a1.228,1.228,0,0,1-1.243-.995A1.166,1.166,0,0,1,22.833,52.9h2.946a1.23,1.23,0,0,1,1.26,1.089,1.161,1.161,0,0,1-1.158,1.24Z" transform="translate(-6.962 -17.644)" fill="#fff"/>
    <path id="Path_805" data-name="Path 805" d="M13.466,54.28v.468h-.006a1.156,1.156,0,0,1-1.152,1.165H9.247a1.158,1.158,0,0,1-1.153-1.165H8.088V54.28h.075a1.288,1.288,0,0,1,1.19-.766H12.2a1.287,1.287,0,0,1,1.189.766Z" transform="translate(-2.155 -17.861)" fill="#e3e7f0"/>
    <path id="Path_806" data-name="Path 806" d="M12.305,55.232H9.347A1.227,1.227,0,0,1,8.1,54.237,1.166,1.166,0,0,1,9.257,52.9H12.2a1.23,1.23,0,0,1,1.26,1.089,1.161,1.161,0,0,1-1.158,1.24Z" transform="translate(-2.156 -17.644)" fill="#fff"/>
    <path id="Path_807" data-name="Path 807" d="M8.092,35.222v2.814A1.284,1.284,0,0,0,9.376,39.32h5.27a1.284,1.284,0,0,0,1.284-1.284V35.222a1.285,1.285,0,0,0-1.284-1.285H9.376A1.284,1.284,0,0,0,8.092,35.222Z" transform="translate(-2.156 -10.931)" fill="#febc1f"/>
    <path id="Path_808" data-name="Path 808" d="M8.092,34.543v2.814a1.285,1.285,0,0,0,1.284,1.285h5.27a1.284,1.284,0,0,0,1.284-1.285V34.543a1.285,1.285,0,0,0-1.284-1.285H9.376A1.284,1.284,0,0,0,8.092,34.543Z" transform="translate(-2.156 -10.691)" fill="#ffd475"/>
    <path id="Path_809" data-name="Path 809" d="M11.876,35.646V33.258h-.611v2.388H8.093v.61H9.828v2.386h.61V36.256h2.748v2.386h.61V36.256h2.136v-.61Z" transform="translate(-2.157 -10.691)" fill="#febc1f"/>
  </g>
</svg>
