<svg xmlns="http://www.w3.org/2000/svg" width="39.452" height="40" viewBox="0 0 39.452 40">
  <g id="Group_33779" data-name="Group 33779" transform="translate(-596 -587)">
    <g id="Group_33842" data-name="Group 33842" transform="translate(595.5 587)">
      <path id="Path_833" data-name="Path 833" d="M34.25,24.058l.6,1.063L44.5,19.692l-.6-1.063Zm0,0" transform="translate(-31.114 -17.174)" fill="#954c35"/>
      <path id="Path_834" data-name="Path 834" d="M165.241,18.629l-.6,1.063,10.1,5.646.6-1.063Zm0,0" transform="translate(-151.321 -17.174)" fill="#954c35"/>
      <path id="Path_835" data-name="Path 835" d="M303.277,157.645v1.37a7.688,7.688,0,0,1-2.6,5.766l-.073.064a5.111,5.111,0,0,1-3.379,1.277h-5.141a5.109,5.109,0,0,1-3.463-1.353,7.689,7.689,0,0,1-2.477-5.653V157.6c0-4.649,2.377-7.854,6.3-10.348l.076-.048v-1.848l-1.334-7.518a.449.449,0,0,1,.439-.54h6.092a.449.449,0,0,1,.439.54l-1.32,7.517v1.85l.089.055C300.878,149.75,303.277,152.974,303.277,157.645Zm0,0" transform="translate(-263.326 -126.574)" fill="#20b7a1"/>
      <path id="Path_836" data-name="Path 836" d="M327.736,157.645v1.37a7.688,7.688,0,0,1-2.6,5.766l-.073.064a5.111,5.111,0,0,1-3.379,1.277h-3.068a5.109,5.109,0,0,1-3.463-1.353,7.688,7.688,0,0,1-2.477-5.653V157.6c0-4.649,2.376-7.854,6.3-10.348l.076-.048v-1.848l-1.334-7.518a.449.449,0,0,1,.439-.54h4.02a.449.449,0,0,1,.439.54l-1.319,7.517v1.85l.089.055c3.955,2.488,6.354,5.711,6.354,10.382Zm0,0" transform="translate(-287.784 -126.574)" fill="#24d3b5"/>
      <path id="Path_837" data-name="Path 837" d="M367.75,240.477h4.318v1.846H367.75Zm0,0" transform="translate(-338.559 -221.69)" fill="#ffde91"/>
      <path id="Path_838" data-name="Path 838" d="M367.75,240.477h2.072v1.846H367.75Zm0,0" transform="translate(-338.559 -221.69)" fill="#edc472"/>
      <path id="Path_839" data-name="Path 839" d="M146.636,307.056a8.568,8.568,0,1,1-.517-12.1A8.529,8.529,0,0,1,146.636,307.056Zm0,0" transform="translate(-121.005 -269.83)" fill="#ffde91"/>
      <path id="Path_840" data-name="Path 840" d="M175.281,308.071a8.529,8.529,0,0,1-5.1,2.687,8.567,8.567,0,0,1,.005-16.961,8.568,8.568,0,0,1,5.094,14.274Zm0,0" transform="translate(-149.649 -270.844)" fill="#ffe89c"/>
      <path id="Path_841" data-name="Path 841" d="M175.013,331.034a6.141,6.141,0,1,1-5.15-7.221c.108.016.216.034.322.055a6.1,6.1,0,0,1,3.716,2.35A6.158,6.158,0,0,1,175.013,331.034Zm0,0" transform="translate(-149.657 -298.456)" fill="#dbad5c"/>
      <path id="Path_842" data-name="Path 842" d="M203.629,332.451a6.136,6.136,0,0,1-4.815,4.875,6.143,6.143,0,0,1-.012-12.04,6.1,6.1,0,0,1,3.716,2.35A6.158,6.158,0,0,1,203.629,332.451Zm0,0" transform="translate(-178.274 -299.872)" fill="#edc472"/>
      <path id="Path_844" data-name="Path 844" d="M15.377,307.056a8.568,8.568,0,1,1-.517-12.1,8.53,8.53,0,0,1,.517,12.1Zm0,0" transform="translate(0 -269.83)" fill="#ffe89c"/>
      <path id="Path_845" data-name="Path 845" d="M44.021,308.071a8.529,8.529,0,0,1-5.1,2.687,8.567,8.567,0,0,1,.006-16.961,8.568,8.568,0,0,1,5.094,14.274Zm0,0" transform="translate(-28.644 -270.844)" fill="#fcf2b6"/>
      <path id="Path_846" data-name="Path 846" d="M43.755,331.034a6.141,6.141,0,1,1-5.15-7.221c.108.016.216.034.322.055a6.1,6.1,0,0,1,3.716,2.35,6.158,6.158,0,0,1,1.112,4.816Zm0,0" transform="translate(-28.654 -298.456)" fill="#dbad5c"/>
      <path id="Path_847" data-name="Path 847" d="M72.371,332.451a6.136,6.136,0,0,1-4.815,4.875,6.143,6.143,0,0,1-.012-12.04,6.1,6.1,0,0,1,3.716,2.35,6.158,6.158,0,0,1,1.112,4.816Zm0,0" transform="translate(-57.27 -299.872)" fill="#edc472"/>
      <path id="Path_849" data-name="Path 849" d="M29.761,80.639V92.764a1.1,1.1,0,0,1-1.1,1.1H5.737a1.1,1.1,0,0,1-1.1-1.1V80.639a1.1,1.1,0,0,1,1.1-1.1H28.664a1.1,1.1,0,0,1,1.1,1.1Zm0,0" transform="translate(-3.818 -73.329)" fill="#c0694e"/>
      <path id="Path_850" data-name="Path 850" d="M55.944,80.639V90.95h-21.8a1.1,1.1,0,0,1-1.1-1.1V79.543h21.8A1.1,1.1,0,0,1,55.944,80.639Zm0,0" transform="translate(-30.001 -73.329)" fill="#c97e67"/>
      <path id="Path_852" data-name="Path 852" d="M149.624,1.462A1.462,1.462,0,1,1,148.162,0,1.462,1.462,0,0,1,149.624,1.462Zm0,0" transform="translate(-134.778)" fill="#edc472"/>
    </g>
  </g>
</svg>
