<svg xmlns="http://www.w3.org/2000/svg" width="35.118" height="35.12" viewBox="0 0 35.118 35.12">
  <g id="Group_33840" data-name="Group 33840" transform="translate(-0.018)">
    <circle id="Ellipse_537" data-name="Ellipse 537" cx="5.735" cy="5.735" r="5.735" transform="translate(22.45 0)" fill="#fcd249"/>
    <path id="Path_820" data-name="Path 820" d="M329.482,12.422a5.735,5.735,0,0,1,1.295-7.272,5.734,5.734,0,1,0,5.65,9.786A5.735,5.735,0,0,1,329.482,12.422Z" transform="translate(-304.571 -4.797)" fill="#f9b938"/>
    <circle id="Ellipse_538" data-name="Ellipse 538" cx="3.78" cy="3.78" r="3.78" transform="translate(24.405 1.955)" fill="#f9b938"/>
    <path id="Path_821" data-name="Path 821" d="M357.551,35.393a3.781,3.781,0,0,1,.671-4.631,3.78,3.78,0,1,0,3.675,6.366A3.781,3.781,0,0,1,357.551,35.393Z" transform="translate(-331.111 -28.652)" fill="#e59c1c"/>
    <circle id="Ellipse_539" data-name="Ellipse 539" cx="5.735" cy="5.735" r="5.735" transform="translate(16.951 0)" fill="#fcd249"/>
    <path id="Path_822" data-name="Path 822" d="M249.325,12.422a5.735,5.735,0,0,1,1.3-7.272,5.734,5.734,0,1,0,5.65,9.786A5.735,5.735,0,0,1,249.325,12.422Z" transform="translate(-229.913 -4.797)" fill="#f9b938"/>
    <circle id="Ellipse_540" data-name="Ellipse 540" cx="3.78" cy="3.78" r="3.78" transform="translate(18.906 1.955)" fill="#f9b938"/>
    <path id="Path_823" data-name="Path 823" d="M277.394,35.393a3.781,3.781,0,0,1,.671-4.631,3.78,3.78,0,1,0,3.675,6.366A3.781,3.781,0,0,1,277.394,35.393Z" transform="translate(-256.452 -28.652)" fill="#e59c1c"/>
    <path id="Path_824" data-name="Path 824" d="M66.877,9.645,57.639.337a1.031,1.031,0,0,0-1.453,0L46.948,9.645Z" transform="translate(-43.711 -0.035)" fill="#91ce91"/>
    <path id="Path_825" data-name="Path 825" d="M57.639.337a1.031,1.031,0,0,0-1.453,0L46.948,9.645H49.7L58.29.993Z" transform="translate(-43.711 -0.035)" fill="#5eaa5e"/>
    <path id="Path_826" data-name="Path 826" d="M93.709,40.623l-6.474,6.545h14.4l-6.474-6.545A1.03,1.03,0,0,0,93.709,40.623Z" transform="translate(-81.234 -37.557)" fill="#5eaa5e"/>
    <path id="Path_827" data-name="Path 827" d="M95.161,40.624a1.031,1.031,0,0,0-1.453,0l-6.474,6.545h1.837l6.282-6.351Z" transform="translate(-81.233 -37.558)" fill="#4d964d"/>
    <path id="Path_828" data-name="Path 828" d="M35.136,156.546v4.911a3.2,3.2,0,0,1-3.2,3.2H3.219a3.2,3.2,0,0,1-3.2-3.2V142.279a3.2,3.2,0,0,1,3.2-3.2H31.934a3.2,3.2,0,0,1,3.2,3.2v4.892" transform="translate(0 -129.538)" fill="#dd9a5e"/>
    <path id="Path_829" data-name="Path 829" d="M2,161.457V142.279a3.2,3.2,0,0,1,3.2-3.2H3.219a3.2,3.2,0,0,0-3.2,3.2v19.178a3.2,3.2,0,0,0,3.2,3.2H5.2A3.2,3.2,0,0,1,2,161.457Zm33.139-14.111H26.969a4.522,4.522,0,1,0,0,9.045h8.167Z" transform="translate(0 -129.538)" fill="#d38d54"/>
    <path id="Path_830" data-name="Path 830" d="M327.092,311.371a4.517,4.517,0,0,0,4.416,5.494h8.167v-1.943h-8.167A4.539,4.539,0,0,1,327.092,311.371Z" transform="translate(-304.538 -290.012)" fill="#c17b48"/>
    <circle id="Ellipse_541" data-name="Ellipse 541" cx="2.544" cy="2.544" r="2.544" transform="translate(24.549 19.765)" fill="#dadada"/>
    <path id="Path_831" data-name="Path 831" d="M361.725,291.868a2.544,2.544,0,0,1-1.545-3.729,2.544,2.544,0,1,0,2.2,3.816A2.553,2.553,0,0,1,361.725,291.868Z" transform="translate(-333.087 -268.374)" fill="silver"/>
    <path id="Path_832" data-name="Path 832" d="M21.679,181.747a.531.531,0,0,1,.564-.493l.042,0a.53.53,0,0,1,.524.536A.566.566,0,0,1,21.679,181.747Zm28.766.568h-.071a.53.53,0,0,1,0-1.06h.071a.53.53,0,1,1,0,1.06Zm-2.561,0h-.071a.53.53,0,0,1,0-1.06h.071a.53.53,0,0,1,0,1.06Zm-2.56,0h-.071a.53.53,0,0,1,0-1.06h.071a.53.53,0,0,1,0,1.06Zm-2.561,0h-.071a.53.53,0,0,1,0-1.06h.071a.53.53,0,0,1,0,1.06Zm-2.561,0h-.071a.53.53,0,0,1,0-1.06H40.2a.53.53,0,0,1,0,1.06Zm-2.561,0h-.071a.53.53,0,0,1,0-1.06h.071a.53.53,0,1,1,0,1.06Zm-2.561,0h-.071a.53.53,0,0,1,0-1.06h.071a.53.53,0,1,1,0,1.06Zm-2.561,0H32.45a.53.53,0,0,1,0-1.06h.071a.53.53,0,0,1,0,1.06Zm-2.561,0H29.89a.53.53,0,0,1-.53-.53.567.567,0,0,1,1.131,0A.53.53,0,0,1,29.961,182.315Zm-2.561,0h-.071a.53.53,0,0,1-.53-.53.567.567,0,0,1,1.131,0,.53.53,0,0,1-.53.53Zm-2.561,0h-.071a.53.53,0,0,1,0-1.06h.071a.53.53,0,1,1,0,1.06Zm27.434-1.2a.53.53,0,0,1-.53-.556c0-.012,0-.024,0-.037v-.009a.53.53,0,0,1,1.06,0v.009q0,.044,0,.088A.53.53,0,0,1,52.273,181.111Zm-31.247-.647a.53.53,0,0,1-.53-.53v-.071a.53.53,0,0,1,1.06,0v.071A.53.53,0,0,1,21.026,180.464Zm31.248-1.914a.53.53,0,0,1-.53-.53v-.071a.53.53,0,0,1,1.06,0v.071a.53.53,0,0,1-.53.53ZM21.026,177.9a.53.53,0,0,1-.53-.53V177.3a.53.53,0,1,1,1.06,0v.071a.53.53,0,0,1-.53.53Zm0-2.561a.53.53,0,0,1-.53-.53v-.071a.53.53,0,0,1,1.06,0v.071a.53.53,0,0,1-.53.53Zm0-2.561a.53.53,0,0,1-.53-.53v-.071a.53.53,0,0,1,.53-.53A.567.567,0,0,1,21.026,172.783Zm0-2.561a.53.53,0,0,1-.53-.53v-.071a.53.53,0,0,1,1.06,0v.071a.53.53,0,0,1-.53.53Zm0-2.561a.53.53,0,0,1-.53-.53v-.071a.53.53,0,1,1,1.06,0v.071a.53.53,0,0,1-.53.53Zm0-2.561a.53.53,0,0,1-.53-.53V164.5a.53.53,0,0,1,1.06,0v.071a.53.53,0,0,1-.53.53Zm31.248-.674a.53.53,0,0,1-.53-.53v-.071a.53.53,0,0,1,1.06,0v.071a.53.53,0,0,1-.53.53ZM21.026,162.54a.53.53,0,0,1-.53-.53v-.071a.53.53,0,0,1,1.06,0v.071a.53.53,0,0,1-.53.53Zm30.718-1.2q0-.021,0-.042a.625.625,0,1,1,0,.042Zm-29.55-.73a.533.533,0,1,1,.061-1.063A.533.533,0,1,1,22.194,160.608Zm28.238,0h-.071a.53.53,0,0,1,0-1.06h.071a.53.53,0,1,1,0,1.06Zm-2.561,0H47.8a.53.53,0,0,1,0-1.06h.071a.53.53,0,1,1,0,1.06Zm-2.561,0H45.24a.53.53,0,0,1,0-1.06h.071a.53.53,0,1,1,0,1.06Zm-2.561,0h-.071a.53.53,0,0,1,0-1.06h.071a.53.53,0,1,1,0,1.06Zm-2.561,0h-.071a.53.53,0,0,1,0-1.06h.071a.53.53,0,0,1,0,1.06Zm-2.561,0h-.071a.53.53,0,1,1,0-1.06h.071a.53.53,0,1,1,0,1.06Zm-2.561,0H35a.53.53,0,0,1,0-1.06h.071a.53.53,0,0,1,0,1.06Zm-2.561,0h-.071a.53.53,0,0,1-.53-.53.567.567,0,0,1,1.131,0,.53.53,0,0,1-.53.53Zm-2.561,0h-.071a.53.53,0,0,1,0-1.06h.071a.53.53,0,1,1,0,1.06Zm-2.561,0h-.071a.53.53,0,1,1,0-1.06h.071a.53.53,0,1,1,0,1.06Zm-2.561,0h-.071a.53.53,0,1,1,0-1.06h.071a.53.53,0,1,1,0,1.06Z" transform="translate(-19.073 -148.6)" fill="#eab883"/>
  </g>
</svg>
